<svg width="50" height="50" viewBox="0 0 50 50" fill="none" xmlns="http://www.w3.org/2000/svg">
<path d="M10.0351 4.91229C3.96387 9.49876 0 16.7419 0 24.9374C0 28.5965 0.80281 32.0802 2.23281 35.2381L10.0351 30.7268V4.91229Z" fill="white"/>
<path d="M22.5791 23.4837V0C19.9198 0.275689 17.3859 0.952381 15.0527 1.97995V27.8446L22.5791 23.4837Z" fill="white"/>
<path d="M25.0874 27.8195L4.74121 39.5489C6.27157 41.6541 8.10298 43.5338 10.2104 45.0627L32.6138 32.1805L25.0874 27.8195Z" fill="white"/>
<path d="M27.5967 14.812V23.4837L47.9429 35.213C48.9966 32.8822 49.699 30.376 50.0001 27.7444L27.5967 14.812Z" fill="white"/>
<path d="M15.2285 47.995C18.2641 49.2732 21.5757 50 25.088 50C33.4674 50 40.8683 45.8647 45.4342 39.574L37.6319 35.0627L15.2285 47.995Z" fill="white"/>
<path d="M49.975 21.9549C48.5952 10.3509 39.2876 1.15288 27.5967 0V9.02256L49.975 21.9549Z" fill="white"/>
</svg>
